<svg width="14" height="14" viewBox="0 0 14 14" fill="none" xmlns="http://www.w3.org/2000/svg">
<path d="M0.823223 12.1162L0.646446 12.293L0.823223 12.4698L1.53025 13.1768L1.70703 13.3536L1.8838 13.1768L7 8.06058L12.1162 13.1768L12.293 13.3536L12.4698 13.1768L13.1768 12.4698L13.3536 12.293L13.1768 12.1162L8.06058 7L13.1768 1.8838L13.3536 1.70703L13.1768 1.53025L12.4698 0.823223L12.293 0.646446L12.1162 0.823223L7 5.93942L1.8838 0.823223L1.70703 0.646446L1.53025 0.823223L0.823223 1.53025L0.646446 1.70703L0.823223 1.8838L5.93942 7L0.823223 12.1162Z" fill="#F07777" stroke="#F07777" stroke-width="0.5"/>
</svg>
