<svg width="6" height="61" viewBox="0 0 6 61" fill="none" xmlns="http://www.w3.org/2000/svg">
<path d="M6.68376e-05 52.7041C6.69336e-05 50.5077 1.01795 49.3889 1.91603 48.4018C2.72707 47.5105 3.36769 46.8064 3.36769 45.3019C3.36769 43.7974 2.72707 43.0933 1.91603 42.2019C1.01795 41.2149 6.73887e-05 40.0961 6.74847e-05 37.8996C6.75808e-05 35.703 1.01795 34.5843 1.91603 33.5972C2.72707 32.7059 3.36769 32.002 3.36769 30.4975C3.36769 28.9931 2.72707 28.2892 1.91604 27.3979C1.01795 26.4109 6.80358e-05 25.2921 6.81318e-05 23.0955C6.82279e-05 20.8993 1.01795 19.7808 1.91604 18.7938C2.72707 17.9027 3.36769 17.1987 3.36769 15.6945C3.36769 14.1901 2.72707 13.4862 1.91604 12.5949C1.01795 11.608 6.86829e-05 10.4892 6.87789e-05 8.29273C6.88749e-05 6.09614 1.01795 4.97736 1.91604 3.99023C2.72707 3.09898 3.36769 2.39503 3.36769 0.890511C3.36769 0.3988 3.76399 -6.0068e-08 4.25294 -3.86953e-08C4.74174 -1.73291e-08 5.13818 0.3988 5.13818 0.890511C5.13818 3.08696 4.1203 4.20573 3.22222 5.19287C2.41118 6.08412 1.77056 6.78822 1.77056 8.29273C1.77056 9.7971 2.41118 10.5011 3.22207 11.3923C4.1203 12.3793 5.13818 13.4981 5.13818 15.6945C5.13818 17.8908 4.12015 19.0094 3.22207 19.9964C2.41104 20.8875 1.77056 21.5913 1.77056 23.0955C1.77056 24.6001 2.41118 25.304 3.22207 26.1953C4.1203 27.1823 5.13818 28.301 5.13818 30.4975C5.13818 32.6941 4.1203 33.8127 3.22207 34.7998C2.41118 35.6911 1.77056 36.3952 1.77056 37.8996C1.77056 39.4042 2.41118 40.1082 3.22207 40.9994C4.1203 41.9866 5.13818 43.1053 5.13818 45.3019C5.13818 47.4985 4.1203 48.6173 3.22207 49.6044C2.41118 50.4957 1.77056 51.1996 1.77056 52.7041C1.77056 54.209 2.41118 54.9131 3.22221 55.8046C4.1203 56.7917 5.13818 57.9107 5.13818 60.1074C5.13818 60.5991 4.74174 60.9979 4.25294 60.9979C3.76398 60.9979 3.36769 60.5991 3.36769 60.1074C3.36769 58.6026 2.72707 57.8985 1.91603 57.0069C1.01795 56.0198 6.67416e-05 54.901 6.68376e-05 52.7041Z" fill="#1D64AB"/>
</svg>
