<svg width="30" height="30" viewBox="0 0 30 30" fill="none" xmlns="http://www.w3.org/2000/svg">
<path d="M27.5885 0.289795H2.41185C1.23995 0.289795 0.290039 1.23971 0.290039 2.41161V27.5883C0.290039 28.7602 1.23995 29.7101 2.41185 29.7101H27.5885C28.7604 29.7101 29.7103 28.7602 29.7103 27.5883V2.41161C29.7103 1.23971 28.7604 0.289795 27.5885 0.289795V0.289795ZM10.7256 22.5274H7.143V11.7491H10.7256V22.5274ZM8.9344 10.2773H8.91106C7.70886 10.2773 6.93133 9.44974 6.93133 8.41543C6.93133 7.35778 7.73265 6.5531 8.9582 6.5531C10.1837 6.5531 10.9379 7.35778 10.9613 8.41543C10.9613 9.44974 10.1837 10.2773 8.9344 10.2773ZM23.6437 22.5274H20.0615V16.7613C20.0615 15.3122 19.5428 14.3239 18.2465 14.3239C17.2569 14.3239 16.6675 14.9905 16.4084 15.634C16.3137 15.8643 16.2906 16.1862 16.2906 16.5083V22.5274H12.7082C12.7082 22.5274 12.7551 12.7603 12.7082 11.7491H16.2906V13.2752C16.7667 12.5408 17.6185 11.4961 19.5192 11.4961C21.8763 11.4961 23.6437 13.0366 23.6437 16.3471V22.5274Z" fill="white"/>
</svg>
