<svg width="111" height="105" viewBox="0 0 111 105" fill="none" xmlns="http://www.w3.org/2000/svg">
<rect width="110.966" height="105" rx="15" fill="url(#paint0_linear)"/>
<g clip-path="url(#clip0)">
<path d="M49.7842 17.9C43.5539 18.1816 37.992 20.7097 33.7002 25.2112C22.3227 37.1461 22.5416 59.6436 22.6039 62.1317L22.6046 85.5925C22.6046 86.4259 23.2693 87.1023 24.0884 87.1023H46.8575C47.6765 87.1023 48.3413 86.4259 48.3413 85.5925V62.4224C48.3413 61.589 47.6765 60.9126 46.8575 60.9126H35.2211C35.2233 58.9785 35.4533 41.8069 42.7779 34.1477C44.7602 32.0739 47.1075 30.9665 49.9549 30.7619C50.7324 30.7061 51.334 30.0486 51.334 29.2559V19.409C51.334 18.9968 51.1686 18.6028 50.8763 18.3182C50.5832 18.0328 50.1945 17.8743 49.7842 17.9Z" fill="white"/>
<path d="M87.9141 18.3174C87.6211 18.0328 87.242 17.8743 86.8221 17.9C80.5925 18.1808 75.0299 20.7097 70.7373 25.2112C59.3605 37.1461 59.5787 59.6436 59.641 62.1317L59.6417 85.5925C59.6417 86.4259 60.3064 87.1023 61.1255 87.1023H83.8939C84.7129 87.1023 85.3776 86.4259 85.3776 85.5925V62.4224C85.3776 61.589 84.7129 60.9126 83.8939 60.9126H72.2597C72.2619 58.9785 72.4919 41.8069 79.8157 34.1477C81.7988 32.0739 84.1461 30.9665 86.9935 30.7619C87.7709 30.7061 88.3719 30.0486 88.3719 29.2559V19.409C88.3719 18.9976 88.2064 18.6035 87.9141 18.3174Z" fill="white"/>
</g>
<defs>
<linearGradient id="paint0_linear" x1="-42.9851" y1="52.5" x2="140.506" y2="52.5" gradientUnits="userSpaceOnUse">
<stop stop-color="#1D64AB"/>
<stop offset="1" stop-color="#29A9A5"/>
</linearGradient>
<clipPath id="clip0">
<rect width="68.0114" height="69.2045" fill="white" transform="translate(21.4766 17.8977)"/>
</clipPath>
</defs>
</svg>
