<svg width="124" height="117" viewBox="0 0 124 117" fill="none" xmlns="http://www.w3.org/2000/svg">
<rect x="0.96582" y="0.290283" width="123.034" height="116.419" rx="15" fill="url(#paint0_linear)"/>
<path d="M56.1655 20.1369C49.2575 20.4491 43.0908 23.2522 38.3322 28.2432C25.7173 41.4762 25.96 66.4204 26.0291 69.1791L26.0299 95.1913C26.0299 96.1154 26.7669 96.8653 27.675 96.8653H52.9204C53.8285 96.8653 54.5656 96.1154 54.5656 95.1913V69.5014C54.5656 68.5773 53.8285 67.8274 52.9204 67.8274H40.0185C40.0209 65.683 40.2759 46.6438 48.3971 38.1516C50.595 35.8524 53.1976 34.6245 56.3547 34.3977C57.2167 34.3357 57.8838 33.6067 57.8838 32.7279V21.8101C57.8838 21.3531 57.7004 20.9162 57.3763 20.6006C57.0514 20.2842 56.6203 20.1084 56.1655 20.1369Z" fill="white"/>
<path d="M98.4423 20.5998C98.1174 20.2842 97.6971 20.1084 97.2315 20.1369C90.3244 20.4483 84.1568 23.2522 79.3974 28.2432C66.7834 41.4762 67.0252 66.4204 67.0943 69.1791L67.0951 95.1913C67.0951 96.1154 67.8322 96.8653 68.7403 96.8653H93.9848C94.893 96.8653 95.63 96.1154 95.63 95.1913V69.5014C95.63 68.5773 94.893 67.8274 93.9848 67.8274H81.0854C81.0878 65.683 81.3428 46.6438 89.4632 38.1516C91.6619 35.8524 94.2645 34.6245 97.4215 34.3977C98.2836 34.3357 98.9499 33.6067 98.9499 32.7279V21.8101C98.9499 21.3539 98.7664 20.917 98.4423 20.5998Z" fill="white"/>
<defs>
<linearGradient id="paint0_linear" x1="-46.6941" y1="58.4999" x2="156.753" y2="58.4999" gradientUnits="userSpaceOnUse">
<stop stop-color="#1D64AB"/>
<stop offset="1" stop-color="#29A9A5"/>
</linearGradient>
</defs>
</svg>
