<svg width="69" height="70" viewBox="0 0 69 70" fill="none" xmlns="http://www.w3.org/2000/svg">
<g clip-path="url(#clip0)">
<path d="M28.3077 0.00221381C22.0773 0.283791 16.5154 2.81195 12.2237 7.3134C0.84614 19.2483 1.065 41.7458 1.12731 44.234L1.12806 67.6947C1.12806 68.5281 1.79278 69.2045 2.61182 69.2045H25.3809C26.2 69.2045 26.8647 68.5281 26.8647 67.6947V44.5246C26.8647 43.6912 26.2 43.0148 25.3809 43.0148H13.7445C13.7467 41.0808 13.9767 23.9091 21.3013 16.2499C23.2836 14.1762 25.631 13.0687 28.4783 12.8642C29.2558 12.8083 29.8575 12.1508 29.8575 11.3581V1.51126C29.8575 1.09908 29.692 0.705024 29.3997 0.420427C29.1067 0.135076 28.7179 -0.0234527 28.3077 0.00221381Z" fill="url(#paint0_linear)"/>
<path d="M66.1426 0.419795C65.8496 0.135198 65.4705 -0.0233304 65.0506 0.00233614C58.821 0.283158 53.2584 2.81207 48.9658 7.31353C37.5891 19.2485 37.8072 41.7459 37.8695 44.2341L37.8702 67.6948C37.8702 68.5282 38.535 69.2046 39.354 69.2046H62.1224C62.9414 69.2046 63.6061 68.5282 63.6061 67.6948V44.5247C63.6061 43.6913 62.9414 43.0149 62.1224 43.0149H50.4882C50.4904 41.0809 50.7204 23.9092 58.0443 16.25C60.0273 14.1763 62.3746 13.0689 65.222 12.8643C65.9995 12.8084 66.6004 12.1509 66.6004 11.3583V1.51138C66.6004 1.09996 66.4349 0.705901 66.1426 0.419795Z" fill="url(#paint1_linear)"/>
</g>
<defs>
<linearGradient id="paint0_linear" x1="-10.0187" y1="34.602" x2="37.509" y2="34.602" gradientUnits="userSpaceOnUse">
<stop stop-color="#1D64AB"/>
<stop offset="1" stop-color="#29A9A5"/>
</linearGradient>
<linearGradient id="paint1_linear" x1="26.7232" y1="34.6021" x2="74.2521" y2="34.6021" gradientUnits="userSpaceOnUse">
<stop stop-color="#1D64AB"/>
<stop offset="1" stop-color="#29A9A5"/>
</linearGradient>
<clipPath id="clip0">
<rect width="68.0114" height="69.2045" fill="white"/>
</clipPath>
</defs>
</svg>
