<svg width="30" height="30" viewBox="0 0 30 30" fill="none" xmlns="http://www.w3.org/2000/svg">
<rect width="30" height="30" rx="3" fill="white"/>
<path d="M23 9.539C22.405 9.8 21.771 9.973 21.11 10.057C21.79 9.651 22.309 9.013 22.553 8.244C21.919 8.622 21.219 8.889 20.473 9.038C19.871 8.397 19.013 8 18.077 8C16.261 8 14.799 9.474 14.799 11.281C14.799 11.541 14.821 11.791 14.875 12.029C12.148 11.896 9.735 10.589 8.114 8.598C7.831 9.089 7.665 9.651 7.665 10.256C7.665 11.392 8.25 12.399 9.122 12.982C8.595 12.972 8.078 12.819 7.64 12.578C7.64 12.588 7.64 12.601 7.64 12.614C7.64 14.208 8.777 15.532 10.268 15.837C10.001 15.91 9.71 15.945 9.408 15.945C9.198 15.945 8.986 15.933 8.787 15.889C9.212 17.188 10.418 18.143 11.852 18.174C10.736 19.047 9.319 19.573 7.785 19.573C7.516 19.573 7.258 19.561 7 19.528C8.453 20.465 10.175 21 12.032 21C18.068 21 21.368 16 21.368 11.666C21.368 11.521 21.363 11.381 21.356 11.242C22.007 10.78 22.554 10.203 23 9.539Z" fill="url(#paint0_linear)"/>
<defs>
<linearGradient id="paint0_linear" x1="0.802048" y1="14.5" x2="27.2594" y2="14.5" gradientUnits="userSpaceOnUse">
<stop stop-color="#1D64AB"/>
<stop offset="1" stop-color="#29A9A5"/>
</linearGradient>
</defs>
</svg>
