<svg width="30" height="30" viewBox="0 0 30 30" fill="none" xmlns="http://www.w3.org/2000/svg">
<path fill-rule="evenodd" clip-rule="evenodd" d="M13.8352 0C8.06633 1.97626 4 6.66669 4 12.125C4 15.1824 5.29638 18.1449 7.65569 20.493C8.12263 22.2901 7.55587 24.1938 6.14962 25.5063C5.56163 26.0552 5.97744 27 6.8125 27C9.484 27 12.0594 26.0233 13.9728 24.3007C15.8661 24.9313 17.8693 25.25 19.9375 25.25C23.7271 25.25 27.2353 24.1552 30 22.3295V27C30 28.6569 28.6569 30 27 30H3C1.34315 30 0 28.6569 0 27V3C0 1.34315 1.34315 0 3 0H13.8352Z" fill="url(#paint0_linear)"/>
<rect x="0.1" y="0.1" width="29.8" height="29.8" rx="2.9" stroke="url(#paint1_linear)" stroke-width="0.2"/>
<path d="M9.63009 14.3097C10.7977 14.3097 11.8958 14.3024 12.9861 14.3097C13.597 14.317 13.9295 14.5578 13.9914 15.0175C14.061 15.5939 13.7053 15.9806 13.0403 15.9879C11.7875 16.0025 10.5426 15.9952 9.28984 15.9952C8.9264 15.9952 8.57069 16.0098 8.20725 15.9879C7.75874 15.966 7.31797 15.8785 7.10145 15.4407C6.88493 15.0029 7.03959 14.6089 7.33344 14.2514C8.52429 12.8212 9.72288 11.3838 10.9215 9.95366C10.9911 9.8661 11.0607 9.77854 11.1303 9.69828C11.0529 9.57424 10.9447 9.63261 10.8519 9.62531C10.0167 9.61802 9.17385 9.62532 8.3387 9.61802C8.14538 9.61802 7.95206 9.59613 7.76648 9.55965C7.32571 9.46479 7.05506 9.04888 7.15558 8.64028C7.22518 8.363 7.45716 8.13681 7.75101 8.07114C7.9366 8.02736 8.12992 8.00547 8.32324 8.00547C9.69968 7.99818 11.0839 7.99818 12.4603 8.00547C12.7077 7.99818 12.9475 8.02736 13.1872 8.08573C13.713 8.25356 13.9373 8.71324 13.7285 9.19482C13.5429 9.61072 13.249 9.96825 12.9552 10.3258C11.9422 11.5443 10.9292 12.7556 9.9162 13.9595C9.83114 14.0543 9.75381 14.1492 9.63009 14.3097Z" fill="url(#paint2_linear)"/>
<path d="M18.2343 10.811C18.4017 10.6065 18.5761 10.4151 18.8621 10.3623C19.4132 10.2568 19.9294 10.5933 19.9364 11.1212C19.9573 12.4408 19.9503 13.7605 19.9364 15.0802C19.9364 15.4233 19.6992 15.7269 19.3574 15.8258C19.0086 15.9512 18.6109 15.8522 18.3807 15.5685C18.2622 15.4299 18.2133 15.4035 18.0459 15.5289C17.4111 16.0172 16.6926 16.103 15.9183 15.8654C14.6766 15.4827 14.1674 14.5655 14.0278 13.4504C13.8813 12.2429 14.3069 11.2135 15.4509 10.5801C16.3996 10.0456 17.3623 10.0918 18.2343 10.811ZM15.7648 13.2195C15.7788 13.5098 15.8764 13.7869 16.0578 14.0179C16.4345 14.493 17.153 14.5919 17.6622 14.2356C17.7459 14.1762 17.8227 14.1037 17.8924 14.0179C18.2831 13.5164 18.2831 12.6916 17.8924 12.1901C17.6971 11.9328 17.3902 11.781 17.0623 11.7744C16.295 11.7282 15.7578 12.2891 15.7648 13.2195ZM23.0685 13.2591C23.0127 11.5633 24.1916 10.2964 25.8658 10.2502C27.6446 10.1974 28.9421 11.3257 28.9979 12.9753C29.0537 14.6447 27.9725 15.8258 26.3053 15.9842C24.4846 16.1558 23.0406 14.9087 23.0685 13.2591ZM24.8194 13.1007C24.8055 13.4306 24.9101 13.7539 25.1194 14.0245C25.5031 14.4996 26.2216 14.5919 26.7238 14.2224C26.8006 14.1696 26.8633 14.1037 26.9261 14.0377C27.3307 13.5362 27.3307 12.6916 26.9331 12.1901C26.7378 11.9394 26.4308 11.781 26.103 11.7744C25.3496 11.7348 24.8194 12.2759 24.8194 13.1007ZM22.4546 11.946C22.4546 12.9687 22.4616 13.9915 22.4546 15.0142C22.4616 15.4827 22.071 15.872 21.5757 15.8852C21.492 15.8852 21.4013 15.8786 21.3176 15.8588C20.9688 15.7731 20.7037 15.4233 20.7037 15.0076V9.76188C20.7037 9.45175 20.6967 9.14823 20.7037 8.8381C20.7107 8.33002 21.0525 8.0001 21.5687 8.0001C22.0989 7.9935 22.4546 8.32342 22.4546 8.8513C22.4616 9.88065 22.4546 10.9166 22.4546 11.946Z" fill="url(#paint3_linear)"/>
<defs>
<linearGradient id="paint0_linear" x1="-11.6212" y1="15" x2="37.9863" y2="15" gradientUnits="userSpaceOnUse">
<stop stop-color="#1D64AB"/>
<stop offset="1" stop-color="#29A9A5"/>
</linearGradient>
<linearGradient id="paint1_linear" x1="-11.6212" y1="15" x2="37.9863" y2="15" gradientUnits="userSpaceOnUse">
<stop stop-color="#1D64AB"/>
<stop offset="1" stop-color="#29A9A5"/>
</linearGradient>
<linearGradient id="paint2_linear" x1="4.2884" y1="12" x2="15.8635" y2="12" gradientUnits="userSpaceOnUse">
<stop stop-color="#1D64AB"/>
<stop offset="1" stop-color="#29A9A5"/>
</linearGradient>
<linearGradient id="paint3_linear" x1="8.18942" y1="12" x2="32.9932" y2="12" gradientUnits="userSpaceOnUse">
<stop stop-color="#1D64AB"/>
<stop offset="1" stop-color="#29A9A5"/>
</linearGradient>
</defs>
</svg>
